<svg width="34" height="65" xmlns="http://www.w3.org/2000/svg">
  <defs>
    <clipPath id="mgfn__sms-tail-left">
      <path d="M0 64.325C19.206 53.9 15.817 41.74 15.817.047 22.784-1.304 33.894 26.8 33.894 41.162 33.894 60.85 19.77 64.325 0 64.325z"/>
    </clipPath>
    <clipPath id="mgfn__sms-tail-right">
      <path d="M34 64C14.733 53.63 18.133 41.53 18.133.047 11.144-1.298 0 26.665 0 40.954 0 60.543 14.167 64 34 64z"/>
    </clipPath>
  </defs>
</svg>

<svg width="34" height="65" fill="none" xmlns="http://www.w3.org/2000/svg"><path fill="#fff" d="M0 64.325C19.206 53.9 15.817 41.74 15.817.047 22.784-1.304 33.894 26.8 33.894 41.162 33.894 60.85 19.77 64.325 0 64.325z"/></svg>

<svg width="34" height="65" fill="none" xmlns="http://www.w3.org/2000/svg"><path fill="#fff" d="M34 64C14.733 53.63 18.133 41.53 18.133.047 11.144-1.298 0 26.665 0 40.954 0 60.543 14.167 64 34 64z"/></svg>
